<svg width="32" height="32" viewBox="0 0 32 32" xmlns="http://www.w3.org/2000/svg">
  <!-- Background circle -->
  <circle cx="16" cy="16" r="14" fill="#2563eb"/>
  
  <!-- Book icon -->
  <g transform="translate(10, 10)">
    <!-- Open book -->
    <path d="M1 3 C1 2.7 1.3 2.5 1.5 2.5 L5.5 2.5 C5.8 2.5 6 2.7 6 3 L6 9 C6 9.3 5.8 9.5 5.5 9.5 L1.5 9.5 C1.3 9.5 1 9.3 1 9 Z" fill="white" opacity="0.9"/>
    <path d="M6 3 C6 2.7 6.3 2.5 6.5 2.5 L10.5 2.5 C10.8 2.5 11 2.7 11 3 L11 9 C11 9.3 10.8 9.5 10.5 9.5 L6.5 9.5 C6.3 9.5 6 9.3 6 9 Z" fill="white" opacity="0.9"/>
    
    <!-- Book spine -->
    <line x1="6" y1="2.5" x2="6" y2="9.5" stroke="#1d4ed8" stroke-width="0.5"/>
    
    <!-- Flow arrow -->
    <path d="M4 7.5 L8 7.5 M7 6.5 L8 7.5 L7 8.5" stroke="#60a5fa" stroke-width="0.8" fill="none" stroke-linecap="round" stroke-linejoin="round"/>
  </g>
</svg>
